<svg width="132" height="133" viewBox="0 0 132 133" fill="none" xmlns="http://www.w3.org/2000/svg">
<g id="illustrations/envelope">
<rect width="264" height="264" transform="translate(0 0.5) scale(0.5)" fill="white"/>
<g id="Group 332">
<rect id="envelope bg" x="24.3827" y="56.1618" width="83.2065" height="51.1032" fill="url(#paint0_linear)"/>
<path id="Shape" fill-rule="evenodd" clip-rule="evenodd" d="M69.7204 22.6172L107.589 56.1618L106.541 58.1273L104.575 56.2929L27.1344 56.1618L25.4309 57.8653L24.3827 56.1618L62.3825 22.6172C64.479 20.6517 67.6238 20.6517 69.7204 22.6172Z" fill="#004FC4"/>
<path id="Shape_2" fill-rule="evenodd" clip-rule="evenodd" d="M69.0652 23.9275L104.575 56.2928L27.1344 56.1618L62.7756 23.9275C64.7411 22.224 67.2307 22.224 69.0652 23.9275Z" fill="url(#paint1_linear)"/>
<g id="doc">
<g id="paper" filter="url(#filter0_d)">
<path fill-rule="evenodd" clip-rule="evenodd" d="M39.9757 31.3964H91.9961C92.6513 31.3964 93.1754 31.9206 93.1754 32.4447V79.7479C93.1754 80.4031 92.6513 80.9272 91.9961 80.9272H39.9757C39.3205 80.9272 38.7964 80.4031 38.7964 79.7479V32.4447C38.7964 31.9206 39.3205 31.3964 39.9757 31.3964Z" fill="#FFFDF3"/>
</g>
<g id="Group 4">
<rect id="Rectangle" x="60.8177" y="36.0327" width="10.4673" height="10.4673" rx="10.4673" fill="#3CC196"/>
<path id="bs-logo" fill-rule="evenodd" clip-rule="evenodd" d="M65.8977 44.6934L66.0514 44.7554L66.2051 44.6934C67.503 44.2046 68.3968 43.393 68.94 42.3529C69.2236 41.8099 69.397 41.2318 69.4817 40.645C69.5398 40.2418 69.5502 39.8829 69.5329 39.5931C69.5313 39.5675 69.5297 39.5447 69.528 39.5247C69.5269 39.5116 69.5261 39.5032 69.5249 39.4921L69.4887 39.1995L69.2065 39.1273C68.3276 38.8979 67.6127 38.624 67.0486 38.33C66.8466 38.2248 66.677 38.1235 66.5379 38.0291C66.487 37.9945 66.4431 37.9628 66.4059 37.9344C66.3811 37.9154 66.3625 37.9003 66.3494 37.8891C66.1769 37.7396 65.924 37.74 65.752 37.8903C65.741 37.8999 65.7221 37.9153 65.697 37.9346C65.6601 37.9629 65.6162 37.9946 65.5653 38.0291C65.4265 38.1234 65.2568 38.2247 65.0547 38.33C64.4906 38.6239 63.7753 38.8979 62.8949 39.1276L62.8088 39.1496L62.6141 39.1995L62.5775 39.495C62.5767 39.5032 62.5759 39.5116 62.5748 39.5247C62.5731 39.5447 62.5714 39.5675 62.5699 39.5931C62.5526 39.8829 62.5629 40.2418 62.6211 40.645C62.7057 41.2318 62.8792 41.8099 63.1628 42.3529C63.7059 43.393 64.5998 44.2046 65.8977 44.6934ZM67.7065 41.2657C67.7065 40.8242 67.5359 40.4078 67.22 40.0967C66.578 39.4495 65.5248 39.4495 64.8828 40.0967C64.5668 40.4078 64.3963 40.8242 64.3963 41.2657C64.3963 41.7072 64.5668 42.1237 64.8828 42.4348C65.2038 42.7609 65.6301 42.9214 66.0514 42.9214C66.4777 42.9214 66.899 42.7609 67.22 42.4348C67.5359 42.1237 67.7065 41.7072 67.7065 41.2657ZM67.3084 41.2669C67.3084 41.6036 67.1777 41.9203 66.9415 42.1565C66.7053 42.3927 66.3887 42.5234 66.0519 42.5234C65.7855 42.5234 65.5292 42.4379 65.3181 42.2872L67.0722 40.5331C67.223 40.7442 67.3084 41.0005 67.3084 41.2669ZM65.0306 41.9996L66.7846 40.2455C66.5736 40.0948 66.3172 40.0093 66.0509 40.0093C65.7141 40.0093 65.3975 40.14 65.1613 40.3762C64.925 40.6124 64.7944 40.9291 64.7944 41.2658C64.7944 41.5322 64.8798 41.7885 65.0306 41.9996Z" fill="white"/>
</g>
<g id="text">
<path id="more text" fill-rule="evenodd" clip-rule="evenodd" d="M81.1258 61.5342H50.846C50.4148 61.5342 50.0653 61.8837 50.0653 62.3148C50.0653 62.746 50.4148 63.0955 50.846 63.0955H81.1258C81.557 63.0955 81.9065 62.746 81.9065 62.3148C81.9065 61.8837 81.557 61.5342 81.1258 61.5342ZM81.1258 66.6083H50.846C50.4148 66.6083 50.0653 66.9578 50.0653 67.3889C50.0653 67.82 50.4148 68.1695 50.846 68.1695H81.1258C81.557 68.1695 81.9065 67.82 81.9065 67.3889C81.9065 66.9578 81.557 66.6083 81.1258 66.6083ZM54.9482 64.0712H77.0236C77.4547 64.0712 77.8043 64.4207 77.8043 64.8519C77.8043 65.283 77.4547 65.6325 77.0236 65.6325H54.9482C54.517 65.6325 54.1675 65.283 54.1675 64.8519C54.1675 64.4207 54.517 64.0712 54.9482 64.0712ZM75.0701 69.1453H56.9016C56.4705 69.1453 56.121 69.4948 56.121 69.9259C56.121 70.3571 56.4705 70.7066 56.9016 70.7066H75.0701C75.5013 70.7066 75.8508 70.3571 75.8508 69.9259C75.8508 69.4948 75.5013 69.1453 75.0701 69.1453Z" fill="#E6E4DB"/>
<rect id="text_2" x="59.3687" y="51.5756" width="12.9723" height="1.57241" rx="1.56029" fill="#E6E4DB"/>
<rect id="title" x="57.1411" y="48.955" width="17.4275" height="1.57241" rx="1.56029" fill="#E6E4DB"/>
</g>
</g>
<g id="Shape_3" filter="url(#filter1_dd)">
<path fill-rule="evenodd" clip-rule="evenodd" d="M66.0514 81.4513L24.3827 107.265V56.1618L66.0514 81.4513Z" fill="url(#paint2_linear)"/>
</g>
<g id="Shape Copy" filter="url(#filter2_dd)">
<path fill-rule="evenodd" clip-rule="evenodd" d="M66.0514 81.7134L107.589 107.265V56.1618L66.0514 81.7134Z" fill="url(#paint3_linear)"/>
</g>
<g id="Shape_4" filter="url(#filter3_dd)">
<path fill-rule="evenodd" clip-rule="evenodd" d="M69.7204 73.4583L107.589 107.265H24.3827L62.2514 73.4583C64.348 71.6238 67.6238 71.6238 69.7204 73.4583Z" fill="url(#paint4_linear)"/>
</g>
<g id="Combined Shape" style="mix-blend-mode:darken">
<path fill-rule="evenodd" clip-rule="evenodd" d="M69.1414 86.0371C71.4704 87.8759 74.0718 88.4467 77.0285 87.8264L77.1143 87.8079L77.1966 87.787C80.1924 87.033 83.1218 87.6456 85.6951 89.5108L85.7738 89.5683L85.377 90.1068C82.9426 88.3129 80.1884 87.7236 77.3594 88.4357L77.2603 88.4609C74.1066 89.1465 71.2964 88.5579 68.8024 86.6212L68.7269 86.5621L69.1414 86.0371ZM76.3728 91.1024C73.3967 91.7261 70.6725 91.1425 68.3552 89.313L67.9407 89.8379L68.0159 89.8968C70.5019 91.8254 73.4352 92.4258 76.6051 91.7367L76.7045 91.7115C79.5105 91.0046 82.1375 91.5737 84.7285 93.3873L85.112 92.8394L85.0288 92.7816C82.3103 90.9059 79.5123 90.3142 76.5407 91.063L76.4601 91.0836L76.3728 91.1024ZM75.8079 94.2279C72.8299 94.9723 70.1708 94.4092 67.6911 92.5821L67.2944 93.1205L67.3736 93.1784C69.9893 95.076 72.8269 95.6625 75.96 94.8792C78.9438 94.2307 81.5742 94.7944 83.9268 96.6517L84.3413 96.1267L84.2658 96.0676C81.7718 94.1309 78.9615 93.5424 75.8079 94.2279ZM85.6101 93.8549L85.5816 93.9689C84.626 97.8006 87.093 101.851 90.9971 102.796C94.9447 103.751 98.8584 101.414 99.8016 97.4966C100.875 93.5966 98.476 89.6305 94.5148 88.6721C90.5903 87.7224 86.6011 90.0227 85.6101 93.8549ZM94.3595 89.3137C97.9619 90.1853 100.139 93.7841 99.1625 97.3318C98.3027 100.902 94.7482 103.024 91.1524 102.154C87.6392 101.304 85.4004 97.6777 86.197 94.2329L86.2227 94.126C87.0755 90.5844 90.7446 88.439 94.3595 89.3137ZM92.2276 97.0235C92.1872 97.0252 92.135 97.0223 92.1056 97.0067C92.0762 96.9911 92.0446 96.9494 92.0248 96.9157C91.5017 95.9974 91.3114 95.1511 91.6254 94.5605C91.8863 94.0698 92.4104 93.9038 92.8494 94.1373C93.122 94.2822 93.2542 94.5463 93.2577 94.8398C93.5066 94.6788 93.7959 94.6405 94.0686 94.7855C94.5076 95.0189 94.663 95.5462 94.4021 96.0369C94.0881 96.6275 93.2801 96.943 92.2276 97.0235ZM91.6533 100.007C89.2499 99.4414 87.8061 97.0352 88.3791 94.6003C88.9526 92.3062 91.377 90.8958 93.7802 91.4612C96.1836 92.0267 97.6274 94.4329 97.0544 96.8677C96.4809 99.1618 94.0565 100.572 91.6533 100.007ZM96.4019 96.7094C96.8898 94.6361 95.6647 92.5944 93.6264 92.1148C91.5748 91.6321 89.5135 92.8314 89.0316 94.7587C88.5437 96.832 89.7688 98.8737 91.8071 99.3533C93.8587 99.836 95.9201 98.6367 96.4019 96.7094Z" fill="#004FC4"/>
</g>
</g>
<g id="confetti">
<path id="Fill 75" d="M68.5 10.5C68.7715 11.985 69.059 13.486 69.3305 14.971C69.346 15.099 70.736 15.3385 70.8955 15.3705C71.039 15.4025 72.4445 15.6255 72.46 15.7375C72.189 14.2525 71.9015 12.7515 71.63 11.2665C71.614 11.1385 70.2245 10.899 70.065 10.8675C69.9055 10.8355 68.516 10.612 68.5 10.5Z" fill="#AC5DD9"/>
<path id="Fill 212" d="M121.5 17.5V21.6835C121.5 21.8435 123.879 21.987 123.879 22.1145V17.931C123.879 17.771 121.5 17.6275 121.5 17.5Z" fill="#FF5C5C"/>
<path id="Fill 224" d="M114.544 46.545C117.674 46.497 120.787 46.433 123.917 46.3855C124.093 46.3855 123.886 43 123.949 43C120.82 43.048 117.706 43.1115 114.576 43.1595C114.4 43.1595 114.592 46.545 114.544 46.545Z" fill="#0063F7"/>
<path id="Fill 300" d="M92.1243 126.012C90.9852 124.213 91.9621 122.06 93.4657 120.808C93.8362 120.503 94.2552 120.227 94.6858 120.017C94.9043 119.918 95.1225 119.82 95.3544 119.752C95.5213 119.694 95.6867 119.673 95.86 119.63C93.5028 120.267 94.0919 119.863 94.9008 119.833C96.1962 119.795 97.4729 120.027 98.7337 120.302C101.163 120.84 103.509 121.468 106.032 121.124C108.311 120.82 110.844 120.577 112.24 118.498C114.358 115.379 112.623 111.117 114.649 107.986C115.238 107.074 116.122 106.433 117.146 106.061C117.429 105.952 117.711 105.878 117.993 105.804C119.191 105.512 117.758 105.787 117.584 105.83C117.758 105.787 117.951 105.788 118.117 105.766C118.763 105.686 119.403 105.592 120.057 105.491C122.417 105.133 124.684 104.764 126.377 102.92C130.701 98.1991 128.318 91.4802 126.232 86.3601C126.147 86.1705 123.909 86.8766 123.844 86.7313C125.761 91.4364 127.843 96.9776 125.073 101.807C124.502 102.798 123.736 103.702 122.8 104.348C122.344 104.658 121.862 104.91 121.339 105.109C121.012 105.238 120.687 105.332 120.354 105.41C120.166 105.46 119.317 105.595 120.287 105.458C121.208 105.325 120.518 105.425 120.317 105.445C119.03 105.619 117.758 105.787 116.476 106.012C115.359 106.215 114.239 106.525 113.323 107.215C110.228 109.601 111.639 114.27 110.529 117.533C110.204 118.484 109.66 119.341 108.875 119.972C108.425 120.332 107.905 120.617 107.361 120.809C107.077 120.918 105.75 121.198 106.952 120.991C108.141 120.792 106.734 120.932 106.427 120.912C103.836 120.831 101.404 119.857 98.8429 119.57C97.5341 119.422 96.2761 119.583 94.9818 119.779C93.8165 119.951 92.7013 120.119 91.6948 120.763C89.8733 121.929 88.4983 124.366 89.7778 126.4C89.8315 126.48 90.8484 126.252 90.9788 126.229C91.0446 126.181 92.0918 125.94 92.1243 126.012Z" fill="#FFCC00"/>
<path id="Fill 298" d="M23.5395 3.1096C26.73 4.7996 29.4611 8.0716 29.0285 11.8701C28.839 13.5466 28.0686 15.1961 26.757 16.2776C26.1486 16.7781 25.446 17.1701 24.675 17.3461C24.5935 17.3591 24.5125 17.3726 24.4315 17.3996C23.8635 17.5621 25.297 17.3726 25.3105 17.3866C25.175 17.3321 24.959 17.3591 24.81 17.3321C24.418 17.2781 24.0395 17.1701 23.675 17.0351C22.12 16.4401 20.876 15.1691 20.619 13.5061C19.943 13.5336 19.2535 13.5601 18.578 13.5876C22.9851 14.2361 26.5 17.9946 27.365 22.2936C28.2845 26.8771 25.716 31.1896 21.5925 33.1906C20.484 33.7311 19.294 34.0966 18.0775 34.2446C17.8615 34.2721 16.9285 34.3266 18.145 34.2721C19.321 34.2181 18.4155 34.2446 18.118 34.2181C17.7935 34.1911 17.4825 34.1636 17.1715 34.1101C16.5365 34.0016 15.9145 33.8261 15.3195 33.5961C14.738 33.6231 14.157 33.6501 13.5755 33.6776H13.751H13.454C15.103 33.7446 16.2255 35.3266 16.3605 36.8681C16.55 38.9906 14.9275 40.8021 13.4265 42.0731C11.7235 43.5191 9.58755 44.7361 8.56005 46.8181C7.78955 48.3726 7.70805 50.3876 8.99255 51.6851C9.10055 51.7931 9.85755 51.6581 10.02 51.6581C10.1685 51.6581 10.939 51.4956 11.034 51.6041C9.70905 50.2656 9.83055 48.1431 10.6825 46.5751C11.8315 44.4526 14.0755 43.2626 15.82 41.6941C17.307 40.3556 18.8075 38.4226 18.321 36.2866C17.9425 34.6371 16.712 33.5691 15.0355 33.6231C14.6705 33.6371 14.292 33.6501 13.927 33.6636C13.7785 33.6776 13.4405 33.7586 13.305 33.7041C15.536 34.5696 18.1585 34.5156 20.4975 34.1371C22.931 33.7446 25.2295 32.5551 26.9325 30.7706C30.4475 27.1066 30.34 21.6041 27.352 17.6431C25.716 15.4801 23.35 13.9256 20.6465 13.5196C20.4435 13.4931 18.6045 13.6411 18.6045 13.6006C19.1725 17.3186 23.526 17.9136 26.568 17.3186C30.61 16.5211 31.948 11.4646 30.502 8.0851C29.5555 5.8681 27.6901 4.1506 25.594 3.0421C25.3916 2.9336 24.81 3.0691 24.567 3.0691C24.3235 3.0691 23.742 3.2181 23.5395 3.1096Z" fill="#AC5DD9"/>
<path id="Fill 45" d="M121.627 69.2255C123.049 70.024 124.694 70.056 126.147 69.3375C126.259 69.2895 126.098 67.884 126.098 67.7245C126.098 67.565 125.923 66.1595 126.019 66.1115C124.566 66.8305 122.921 66.7825 121.5 66C121.612 66.064 121.548 67.437 121.548 67.6125C121.548 67.82 121.452 69.13 121.627 69.2255Z" fill="#FF5C5C"/>
<path id="Fill 55" d="M77.545 114.953C77.0505 116.918 75.7885 118.546 74 119.505C74.128 119.441 75.262 120.143 75.437 120.239C75.629 120.335 76.699 121.037 76.89 120.942C78.679 119.984 79.9405 118.355 80.435 116.391C80.483 116.135 77.4815 115.161 77.545 114.953Z" fill="#0063F7"/>
<path id="Fill 101" d="M118 118.332C118.959 119.194 119.932 120.056 120.891 120.903C120.987 120.983 122.216 120.328 122.359 120.248C122.503 120.184 123.733 119.498 123.812 119.577C122.854 118.715 121.88 117.853 120.922 117.007C120.826 116.927 119.597 117.581 119.453 117.661C119.309 117.725 118.08 118.412 118 118.332Z" fill="#FFCC00"/>
<path id="Fill 103" d="M112.501 82.624C112.9 84.125 114.081 85.259 115.598 85.578C115.631 85.578 115.998 85.2425 115.966 85.2745C116.253 85.019 116.541 84.78 116.828 84.524C117.115 84.2685 117.403 84.0295 117.675 83.7735C117.722 83.7255 117.978 83.4385 118.026 83.454C116.509 83.1345 115.327 81.9855 114.928 80.5C114.96 80.5955 113.826 81.458 113.714 81.554C113.571 81.666 112.469 82.4645 112.501 82.624Z" fill="#3CC196"/>
<path id="Fill 136" d="M109 6.4865C109.125 7.465 109.639 8.311 110.443 8.883C110.485 8.916 111.065 8.4435 111.123 8.3935C111.181 8.3525 111.761 7.8715 111.795 7.8965C110.99 7.3325 110.476 6.478 110.352 5.5C110.36 5.558 109.739 5.9395 109.672 5.989C109.589 6.047 108.992 6.3955 109 6.4865Z" fill="#3CC196"/>
<path id="Fill 5" d="M42.1213 126.949C44.0533 126.869 45.9858 126.789 47.9178 126.709C48.0293 126.709 47.9018 121.887 47.9338 121.887C46.0018 121.967 44.0693 122.046 42.1373 122.126C42.0258 122.126 42.1533 126.949 42.1213 126.949Z" fill="#FFCC00"/>
<path id="Fill 49" d="M14.3456 98.179C14.4096 99.568 14.4736 100.974 14.5371 102.363C14.5371 102.491 17.7471 102.443 17.7471 102.523C17.6831 101.133 17.6191 99.728 17.5551 98.3385C17.5551 98.227 14.3456 98.2585 14.3456 98.179Z" fill="#3CC196"/>
<path id="Fill 216" d="M6.0263 82.5081C7.2238 82.9871 8.4218 83.4821 9.6353 83.9611C9.5873 83.9451 9.6988 82.8596 9.6988 82.7636C9.6988 82.6516 9.8268 81.5981 9.7468 81.5661C8.5493 81.0871 7.3518 80.5921 6.1383 80.1131C6.1858 80.1286 6.0743 81.2146 6.0743 81.3101C6.0743 81.4221 5.9463 82.4766 6.0263 82.5081Z" fill="#AC5DD9"/>
<path id="Fill 71" d="M39.406 17.163C39.2645 18.8195 39.1385 20.473 39 22.145C39.0065 22.095 40.4405 21.8575 40.5815 21.8295C40.7225 21.8015 42.1445 21.5825 42.157 21.4825C42.2985 19.826 42.4245 18.1725 42.5625 16.5C42.5565 16.55 41.1225 16.788 40.981 16.816C40.8215 16.8315 39.3995 17.05 39.406 17.163Z" fill="#FFCC00"/>
<path id="Fill 122" d="M56.0298 8.6935C57.4348 9.3165 58.8403 9.923 60.2453 10.546C60.1973 10.53 60.4048 9.077 60.4048 8.949C60.4208 8.8055 60.6443 7.4005 60.5328 7.352C59.1278 6.7295 57.7223 6.1225 56.3173 5.5C56.3648 5.516 56.1573 6.969 56.1573 7.097C56.1573 7.2405 55.9178 8.6455 56.0298 8.6935Z" fill="#3CC196"/>
<path id="Fill 168" d="M104.903 26.411H108.113C108.193 26.411 108.24 24 108.273 24H105.063C104.999 24 104.935 26.411 104.903 26.411Z" fill="#AC5DD9"/>
</g>
</g>
<defs>
<filter id="filter0_d" x="38.2964" y="31.3964" width="55.379" height="50.5308" filterUnits="userSpaceOnUse" color-interpolation-filters="sRGB">
<feFlood flood-opacity="0" result="BackgroundImageFix"/>
<feColorMatrix in="SourceAlpha" type="matrix" values="0 0 0 0 0 0 0 0 0 0 0 0 0 0 0 0 0 0 127 0"/>
<feOffset dy="1"/>
<feGaussianBlur stdDeviation="0.5"/>
<feColorMatrix type="matrix" values="0 0 0 0 0 0 0 0 0 0 0 0 0 0 0 0 0 0 0.116805 0"/>
<feBlend mode="normal" in2="BackgroundImageFix" result="effect1_dropShadow"/>
<feBlend mode="normal" in="SourceGraphic" in2="effect1_dropShadow" result="shape"/>
</filter>
<filter id="filter1_dd" x="23.8827" y="55.1618" width="42.6688" height="53.1032" filterUnits="userSpaceOnUse" color-interpolation-filters="sRGB">
<feFlood flood-opacity="0" result="BackgroundImageFix"/>
<feColorMatrix in="SourceAlpha" type="matrix" values="0 0 0 0 0 0 0 0 0 0 0 0 0 0 0 0 0 0 127 0"/>
<feOffset dy="1"/>
<feGaussianBlur stdDeviation="0.5"/>
<feColorMatrix type="matrix" values="0 0 0 0 0 0 0 0 0 0 0 0 0 0 0 0 0 0 0.469597 0"/>
<feBlend mode="normal" in2="BackgroundImageFix" result="effect1_dropShadow"/>
<feColorMatrix in="SourceAlpha" type="matrix" values="0 0 0 0 0 0 0 0 0 0 0 0 0 0 0 0 0 0 127 0"/>
<feOffset dy="-1"/>
<feGaussianBlur stdDeviation="0.5"/>
<feColorMatrix type="matrix" values="0 0 0 0 0 0 0 0 0 0 0 0 0 0 0 0 0 0 0.185094 0"/>
<feBlend mode="normal" in2="effect1_dropShadow" result="effect2_dropShadow"/>
<feBlend mode="normal" in="SourceGraphic" in2="effect2_dropShadow" result="shape"/>
</filter>
<filter id="filter2_dd" x="65.5514" y="55.1618" width="42.5377" height="53.1032" filterUnits="userSpaceOnUse" color-interpolation-filters="sRGB">
<feFlood flood-opacity="0" result="BackgroundImageFix"/>
<feColorMatrix in="SourceAlpha" type="matrix" values="0 0 0 0 0 0 0 0 0 0 0 0 0 0 0 0 0 0 127 0"/>
<feOffset dy="1"/>
<feGaussianBlur stdDeviation="0.5"/>
<feColorMatrix type="matrix" values="0 0 0 0 0 0 0 0 0 0 0 0 0 0 0 0 0 0 0.469597 0"/>
<feBlend mode="normal" in2="BackgroundImageFix" result="effect1_dropShadow"/>
<feColorMatrix in="SourceAlpha" type="matrix" values="0 0 0 0 0 0 0 0 0 0 0 0 0 0 0 0 0 0 127 0"/>
<feOffset dy="-1"/>
<feGaussianBlur stdDeviation="0.5"/>
<feColorMatrix type="matrix" values="0 0 0 0 0 0 0 0 0 0 0 0 0 0 0 0 0 0 0.185094 0"/>
<feBlend mode="normal" in2="effect1_dropShadow" result="effect2_dropShadow"/>
<feBlend mode="normal" in="SourceGraphic" in2="effect2_dropShadow" result="shape"/>
</filter>
<filter id="filter3_dd" x="23.8827" y="71.0824" width="84.2065" height="37.1826" filterUnits="userSpaceOnUse" color-interpolation-filters="sRGB">
<feFlood flood-opacity="0" result="BackgroundImageFix"/>
<feColorMatrix in="SourceAlpha" type="matrix" values="0 0 0 0 0 0 0 0 0 0 0 0 0 0 0 0 0 0 127 0"/>
<feOffset dy="1"/>
<feGaussianBlur stdDeviation="0.5"/>
<feColorMatrix type="matrix" values="0 0 0 0 0 0 0 0 0 0 0 0 0 0 0 0 0 0 0.469597 0"/>
<feBlend mode="normal" in2="BackgroundImageFix" result="effect1_dropShadow"/>
<feColorMatrix in="SourceAlpha" type="matrix" values="0 0 0 0 0 0 0 0 0 0 0 0 0 0 0 0 0 0 127 0"/>
<feOffset dy="-1"/>
<feGaussianBlur stdDeviation="0.5"/>
<feColorMatrix type="matrix" values="0 0 0 0 0 0 0 0 0 0 0 0 0 0 0 0 0 0 0.185094 0"/>
<feBlend mode="normal" in2="effect1_dropShadow" result="effect2_dropShadow"/>
<feBlend mode="normal" in="SourceGraphic" in2="effect2_dropShadow" result="shape"/>
</filter>
<linearGradient id="paint0_linear" x1="12.1913" y1="28.0809" x2="12.1913" y2="79.1841" gradientUnits="userSpaceOnUse">
<stop stop-color="#5B8DEF"/>
<stop offset="1" stop-color="#0063F7"/>
</linearGradient>
<linearGradient id="paint1_linear" x1="27.1344" y1="22.6499" x2="27.1344" y2="56.2928" gradientUnits="userSpaceOnUse">
<stop stop-color="#0063F7"/>
<stop offset="1" stop-color="#5B8DEF"/>
</linearGradient>
<linearGradient id="paint2_linear" x1="24.3827" y1="56.1618" x2="24.3827" y2="107.265" gradientUnits="userSpaceOnUse">
<stop stop-color="#5B8DEF"/>
<stop offset="1" stop-color="#0063F7"/>
</linearGradient>
<linearGradient id="paint3_linear" x1="66.0514" y1="56.1618" x2="66.0514" y2="107.265" gradientUnits="userSpaceOnUse">
<stop stop-color="#5B8DEF"/>
<stop offset="1" stop-color="#0063F7"/>
</linearGradient>
<linearGradient id="paint4_linear" x1="24.3827" y1="72.0824" x2="24.3827" y2="107.265" gradientUnits="userSpaceOnUse">
<stop stop-color="#5B8DEF"/>
<stop offset="1" stop-color="#0063F7"/>
</linearGradient>
</defs>
</svg>
